<?xml version="1.0" encoding="UTF-8"?>
<svg version="1.1" xmlns="http://www.w3.org/2000/svg" width="512" height="512">
<path d="M0 0 C1.5298863 0.36656054 3.06033776 0.73076929 4.59130859 1.09277344 C7.67676271 1.82676505 10.75793059 2.57574063 13.83642578 3.33837891 C18.11978014 4.39690834 22.41499527 5.39771401 26.71484375 6.38671875 C29.28957952 6.98478861 31.86354748 7.58605927 34.4375 8.1875 C35.59725342 8.4563501 36.75700684 8.7252002 37.9519043 9.00219727 C53.8972349 12.83515282 66.6752143 19.64309446 76.25 33.375 C78.73795104 37.58160143 78.88482155 40.61364698 78.3125 45.4375 C77.6525 46.4275 76.9925 47.4175 76.3125 48.4375 C75.6525 48.4375 74.9925 48.4375 74.3125 48.4375 C74.456875 49.19933594 74.60125 49.96117187 74.75 50.74609375 C75.89047374 57.08997896 76.52724302 62.99520944 76.3125 69.4375 C77.09625 69.540625 77.88 69.64375 78.6875 69.75 C81.3125 70.4375 81.3125 70.4375 83.3125 73.4375 C83.51263428 75.42156982 83.51263428 75.42156982 83.44433594 77.70605469 C83.42481873 78.56414734 83.40530151 79.42223999 83.38519287 80.30633545 C83.35604797 81.2313385 83.32690308 82.15634155 83.296875 83.109375 C83.26182765 85.07289573 83.2280125 87.03643877 83.1953125 89 C83.13350323 92.09242551 83.06261315 95.18373383 82.96972656 98.27539062 C82.8846992 101.26185731 82.83807076 104.24702428 82.796875 107.234375 C82.75963318 108.15128113 82.72239136 109.06818726 82.684021 110.01287842 C82.64579417 114.83068491 82.99129994 117.62620563 86.22900391 121.31542969 C86.75974518 121.82483093 87.29048645 122.33423218 87.83731079 122.85906982 C93.4598061 128.8750549 92.769914 138.29131262 92.6875 145.9375 C92.69910156 147.01386719 92.71070313 148.09023437 92.72265625 149.19921875 C92.69240722 157.47737128 91.82093429 165.7136566 85.96484375 172.0859375 C81.07983002 176.08171705 75.67761027 178.82395312 69.3125 178.4375 C69.250625 179.736875 69.18875 181.03625 69.125 182.375 C67.05404611 202.18899127 57.71671912 220.75349184 43.3125 234.4375 C42.79042969 234.98019531 42.26835937 235.52289063 41.73046875 236.08203125 C37.63153862 240.32900401 33.33044299 244.2883082 28.3125 247.4375 C27.6525 247.4375 26.9925 247.4375 26.3125 247.4375 C26.42318523 251.77132182 26.55362268 256.1043375 26.6875 260.4375 C26.73390625 262.26861328 26.73390625 262.26861328 26.78125 264.13671875 C26.98877022 270.53525898 27.42783505 276.30850828 29.3125 282.4375 C29.9725 282.1075 30.6325 281.7775 31.3125 281.4375 C37.11704601 281.04457465 41.93994304 282.17361982 47.45385742 283.74487305 C48.34268616 283.99043442 49.23151489 284.23599579 50.14727783 284.48899841 C53.07343436 285.3000639 55.99570899 286.124233 58.91796875 286.94921875 C60.96413968 287.52073962 63.01047318 288.09167872 65.05696106 288.6620636 C69.34472064 289.85931544 73.63062137 291.06295065 77.9152832 292.27124023 C83.37787137 293.81126078 88.84446651 295.33644117 94.31252575 296.85690594 C98.54116632 298.03434527 102.76768795 299.21924775 106.9936161 300.40638161 C109.00662382 300.97102613 111.02023379 301.5335285 113.03447533 302.09375572 C138.27981387 309.12712307 138.27981387 309.12712307 146.875 314.6875 C150.30275582 316.43253933 152.06630687 316.71384668 155.8125 316.9375 C161.1846221 317.28385081 164.06591051 318.05756143 168.3125 321.4375 C172.63170991 327.00362468 172.8155127 332.61888337 172.3125 339.4375 C173.97725686 339.78024406 175.64445323 340.11114302 177.3125 340.4375 C178.26125 340.746875 179.21 341.05625 180.1875 341.375 C183.85599297 341.44836986 184.34568439 340.90388577 187 338.5625 C187.56074219 338.00820313 188.12148438 337.45390625 188.69921875 336.8828125 C191.40331121 334.46025993 194.14088426 334.25970965 197.625 334.1875 C198.36363281 334.16171875 199.10226562 334.1359375 199.86328125 334.109375 C206.86806323 335.04781469 211.26455902 339.90053593 216 344.6875 C216.66322266 345.33074219 217.32644531 345.97398437 218.00976562 346.63671875 C222.9924672 351.62443815 225.93047318 355.80824521 226.6875 363 C226.09994845 368.38588921 224.34235335 371.45242288 220.4375 375.1875 C217.98738431 378.16215715 217.98738431 378.16215715 218.66015625 381.0390625 C219.42690423 383.57111398 220.2864164 385.99994928 221.3125 388.4375 C222.02535156 388.39109375 222.73820312 388.3446875 223.47265625 388.296875 C230.07309313 388.04813714 234.07766223 388.27099647 239.3125 392.4375 C244.22224862 398.84151993 243.94717086 405.01686746 243.875 412.875 C243.89884766 414.06416016 243.92269531 415.25332031 243.94726562 416.47851562 C243.93525433 423.68929733 243.26896887 428.96619145 238.3125 434.4375 C233.15202789 438.36928827 227.51420994 437.73544692 221.3125 437.4375 C221.1784375 438.20449219 221.044375 438.97148437 220.90625 439.76171875 C220.3125 442.4375 220.3125 442.4375 218.8125 445.25 C217.94637645 448.40142889 217.94637645 448.40142889 219.70703125 450.4921875 C220.97137499 451.89815834 222.27361803 453.27106943 223.61328125 454.60546875 C226.52803052 457.74803751 226.49430829 460.97024759 226.73828125 465.109375 C225.42148553 472.309469 219.87741303 477.33560596 214.875 482.25 C214.21951172 482.91708984 213.56402344 483.58417969 212.88867188 484.27148438 C208.26946757 488.86289006 204.61590662 491.71395237 197.875 491.75 C193.68713415 491.64565118 190.87260433 490.75570747 187.3125 488.4375 C186.631875 487.695 185.95125 486.9525 185.25 486.1875 C184.610625 485.61 183.97125 485.0325 183.3125 484.4375 C180.80925668 484.45416329 180.80925668 484.45416329 178.3125 485.4375 C177.4565625 485.66695313 176.600625 485.89640625 175.71875 486.1328125 C173.04470184 487.21712257 173.04470184 487.21712257 172.52734375 490.046875 C172.43582031 491.08328125 172.34429687 492.1196875 172.25 493.1875 C171.59430144 498.25702127 170.82138086 501.52760418 167.3125 505.4375 C161.33567577 509.80737577 154.99964698 508.91343606 147.875 508.875 C146.56466797 508.89498047 145.25433594 508.91496094 143.90429688 508.93554688 C142.63779297 508.93490234 141.37128906 508.93425781 140.06640625 508.93359375 C138.33886108 508.93637329 138.33886108 508.93637329 136.57641602 508.93920898 C131.29608988 508.12754991 128.23814508 505.58237681 124.9375 501.5 C123.25284974 498.3250822 123.15936909 496.91828338 123.3125 493.4375 C122.19087238 493.43920874 122.19087238 493.43920874 121.04658562 493.440952 C76.73019613 493.50808409 32.41381216 493.5595586 -11.90261799 493.59069599 C-17.22357158 493.59444811 -22.54452507 493.59833108 -27.86547852 493.60229492 C-28.92478597 493.60308185 -29.98409342 493.60386878 -31.07550109 493.60467956 C-48.22836497 493.617734 -65.38119869 493.64138806 -82.53404468 493.66895839 C-100.13402939 493.69701151 -117.73399831 493.71367607 -135.33400446 493.71976548 C-146.1944179 493.72388211 -157.0547461 493.73688493 -167.9151333 493.7612494 C-175.36218617 493.77710542 -182.80919496 493.78190065 -190.25626349 493.77800413 C-194.5530273 493.77608239 -198.84964213 493.77903151 -203.14637947 493.79511642 C-207.08277902 493.80974464 -211.01892978 493.81043348 -214.95534093 493.80019668 C-216.37676181 493.79893199 -217.79819839 493.80271281 -219.21958851 493.81214955 C-230.13763899 493.88040012 -238.86304883 493.17871131 -246.95703125 485.359375 C-253.3484925 478.26095754 -253.21004231 471.05523264 -252.84588623 461.82925415 C-252.39113173 454.96211072 -251.18057855 448.18285599 -249.97143555 441.4152832 C-249.49445283 438.71863881 -249.05410436 436.01753199 -248.61523438 433.31445312 C-248.31467399 431.58035096 -248.01201742 429.8466105 -247.70703125 428.11328125 C-247.51606621 426.91485344 -247.51606621 426.91485344 -247.32124329 425.69221497 C-246.36660632 420.57771742 -245.02967429 417.67746424 -240.6875 414.4375 C-239.3675 414.4375 -238.0475 414.4375 -236.6875 414.4375 C-236.55472656 413.32890625 -236.42195313 412.2203125 -236.28515625 411.078125 C-236.10690243 409.6145673 -235.92850972 408.15102651 -235.75 406.6875 C-235.66298828 405.95789063 -235.57597656 405.22828125 -235.48632812 404.4765625 C-235.06722591 401.06165558 -234.570226 397.76146457 -233.6875 394.4375 C-235.3375 393.7775 -236.9875 393.1175 -238.6875 392.4375 C-239.99804481 384.76029613 -239.12055504 378.34124554 -237.5625 370.75 C-237.33095215 369.59749756 -237.0994043 368.44499512 -236.86083984 367.25756836 C-232.70813541 347.30347164 -224.74947181 330.08909849 -207.875 317.625 C-198.42130889 311.52491185 -188.6755857 308.0036835 -177.9453125 304.87109375 C-176.19597664 304.35705994 -176.19597664 304.35705994 -174.41130066 303.8326416 C-160.17855129 299.67250773 -145.90103322 295.67129798 -131.61010742 291.71630859 C-128.50100588 290.85535079 -125.39375494 289.98811153 -122.2878418 289.11572266 C-118.45964566 288.04046441 -114.62877043 286.97532791 -110.79573631 285.91744995 C-109.35838198 285.51903284 -107.92196921 285.11720068 -106.48659706 284.71170044 C-92.86927102 280.87041277 -92.86927102 280.87041277 -85.6875 281.4375 C-80.6195014 273.05060082 -81.93333366 256.93655532 -83.6875 247.4375 C-86.43928343 242.06646517 -91.48040393 239.98718152 -96.6875 237.4375 C-111.71318659 225.05476805 -121.45050189 204.36148895 -124.6875 185.4375 C-124.72574623 183.10448014 -124.73324284 180.77038492 -124.6875 178.4375 C-125.244375 178.43492187 -125.80125 178.43234375 -126.375 178.4296875 C-134.33875862 178.02611865 -138.75743471 174.59888623 -144.0625 168.875 C-148.42786901 162.32694649 -148.02676303 155.78718163 -148.00317383 148.20019531 C-148.00001952 146.07564702 -148.02347934 143.95250091 -148.04882812 141.828125 C-148.05110219 140.46093924 -148.05180411 139.09374977 -148.05078125 137.7265625 C-148.05376221 136.49631348 -148.05674316 135.26606445 -148.05981445 133.99853516 C-147.35731265 127.2793933 -144.51679928 122.82196762 -139.796875 118.11328125 C-139.43078125 117.56027344 -139.0646875 117.00726563 -138.6875 116.4375 C-139.00338105 115.09992456 -139.34022314 113.76726978 -139.6875 112.4375 C-139.78212548 110.73509438 -139.82548939 109.02948077 -139.83276367 107.32446289 C-139.83914352 106.30562515 -139.84552338 105.28678741 -139.85209656 104.23707581 C-139.85320938 103.13919235 -139.8543222 102.0413089 -139.85546875 100.91015625 C-139.86046135 99.200308 -139.86046135 99.200308 -139.86555481 97.45591736 C-139.87061936 95.03921919 -139.87296328 92.62251402 -139.87280273 90.20581055 C-139.87497315 86.54528904 -139.89308947 82.88507692 -139.91210938 79.22460938 C-139.91504677 76.86979269 -139.91702925 74.51497458 -139.91796875 72.16015625 C-139.92515427 71.08049088 -139.93233978 70.0008255 -139.93974304 68.88844299 C-139.88731086 51.04185014 -136.23754162 36.28223552 -123.58984375 23.28125 C-109.70934234 10.15964725 -89.78495712 7.26934117 -71.80834961 3.00878906 C-69.53642984 2.46532479 -67.26712661 1.91079217 -65.00073242 1.34472656 C-42.69867798 -4.21983 -22.37066446 -5.66473204 0 0 Z " fill="#020101" transform="translate(260.6875,3.5625)"/>
<path d="M0 0 C1.9375 1.94921875 1.9375 1.94921875 4 4.6875 C7.491356 9.16079988 11.10925684 13.37082175 15 17.5 C18.59196092 21.33149978 22.03875113 25.20027684 25.3125 29.3125 C37.83467653 45.63588039 37.83467653 45.63588039 55 56 C55.99 56.33 56.98 56.66 58 57 C68.69715494 58.74058473 78.55125589 54.06131643 88.375 50.4375 C90.9572492 49.49138201 93.54095645 48.55068301 96.13052368 47.62477112 C97.73209357 47.05164442 99.32954015 46.4668214 100.92196655 45.86875916 C105.03440323 44.39180473 107.72423226 43.54564001 112 45 C113.83824341 45.60146851 113.83824341 45.60146851 115.71362305 46.21508789 C117.14708561 46.71542718 118.57974234 47.2180793 120.01171875 47.72265625 C121.59024125 48.26701181 123.16902598 48.81060745 124.74804688 49.35351562 C127.2145094 50.2043828 129.67907413 51.05952582 132.1394043 51.92797852 C144.26931898 56.19886917 154.67099513 59.71874477 167 54 C177.50516407 48.46423528 184.23028867 38.97596045 191.55078125 29.91796875 C194.75046813 26.10590161 198.13590529 22.48925535 201.53808594 18.85864258 C205.62236786 14.47466302 209.42540759 9.92974913 213.16015625 5.2421875 C213.76730469 4.50226563 214.37445313 3.76234375 215 3 C215.47566406 2.39285156 215.95132812 1.78570312 216.44140625 1.16015625 C218 0 218 0 220.2421875 0.00390625 C226.3098641 1.29126197 232.19003349 2.89081072 238.09765625 4.78125 C243.13694245 6.38076432 248.22714953 7.80532724 253.3125 9.25 C254.26302246 9.52038086 255.21354492 9.79076172 256.19287109 10.06933594 C258.46160461 10.71398978 260.73063136 11.35758619 263 12 C262.49396008 14.16874252 262.00016187 15.99967627 261 18 C260.7724985 19.87056791 260.59037189 21.74685958 260.4375 23.625 C260.35371094 24.62789063 260.26992188 25.63078125 260.18359375 26.6640625 C260.12300781 27.43492187 260.06242187 28.20578125 260 29 C258.5903653 29.70180531 257.17192359 30.38593958 255.75 31.0625 C254.96109375 31.44535156 254.1721875 31.82820313 253.359375 32.22265625 C250.66720543 33.10964589 249.59628159 33.0630865 247 32 C245.3671875 30.84375 245.3671875 30.84375 243.875 29.5 C239.4840722 25.68180191 236.58235935 25.52377314 230.87109375 25.60546875 C226.03686484 26.26976415 223.42898579 28.6888038 220 32 C218.70835937 33.19496094 218.70835937 33.19496094 217.390625 34.4140625 C210.2218515 41.15100843 210.2218515 41.15100843 206.6015625 50.125 C206.65990849 54.79267892 207.43200472 57.96457885 210 62 C210.7425 62.639375 211.485 63.27875 212.25 63.9375 C214 66 214 66 213.875 69.4375 C212.35469932 75.62729564 212.35469932 75.62729564 211 78 C208.171875 78.75 208.171875 78.75 204.75 79 C198.77133073 79.70026403 195.97786756 80.48458277 192 85 C188.79819624 90.11205362 189.67157581 96.04674704 189.6875 101.875 C189.67138672 103.04675781 189.65527344 104.21851563 189.63867188 105.42578125 C189.56578341 113.65943239 189.56578341 113.65943239 193 121 C197.28204936 124.86428845 199.94339005 126.10004338 205.625 126.5625 C207.12933594 126.68818359 207.12933594 126.68818359 208.6640625 126.81640625 C209.43492187 126.87699219 210.20578125 126.93757813 211 127 C214.85623679 135.19450317 214.85623679 135.19450317 214 139 C212.57863681 140.94168365 211.05607079 142.69435479 209.41015625 144.44921875 C206.56126161 147.58221369 206.61696248 150.46659219 206.63671875 154.54296875 C207.25446531 158.72106108 209.55547735 161.65781658 212 165 C212.33 165.66 212.66 166.32 213 167 C173.84776644 167.11439243 134.69555462 167.20252194 95.5431874 167.25532665 C90.92307843 167.26158034 86.3029698 167.26805193 81.68286133 167.2746582 C80.30316463 167.27662553 80.30316463 167.27662553 78.89559527 167.2786326 C63.9935785 167.3004015 49.09165796 167.33983118 34.18969832 167.38576398 C18.90400244 167.43248736 3.61835703 167.46028667 -11.66740733 167.47044247 C-21.10299461 167.4773102 -30.53830989 167.49901718 -39.97381345 167.53958233 C-46.44016893 167.56596989 -52.90638337 167.57401007 -59.37278881 167.56750689 C-63.10616117 167.56429773 -66.83905756 167.56928825 -70.57234573 167.59602737 C-74.61716262 167.62478676 -78.66096084 167.6149653 -82.70585632 167.60127258 C-84.48162813 167.62311889 -84.48162813 167.62311889 -86.2932741 167.64540654 C-95.12381734 167.56422178 -95.12381734 167.56422178 -98.20588398 164.52492046 C-99.09397141 163.27508483 -99.09397141 163.27508483 -100 162 C-100.33 161.67 -100.66 161.34 -101 161 C-101.70223642 151.2564697 -99.32606192 141.67467731 -97.56347656 132.13818359 C-95.00767306 120.12950163 -95.00767306 120.12950163 -95 108 C-96.65667403 106.65427094 -98.32299597 105.32030793 -100 104 C-100.06773956 101.04409193 -99.9064006 98.84789446 -99.375 96 C-99.21064453 94.93265625 -99.21064453 94.93265625 -99.04296875 93.84375 C-98.51643471 90.52348826 -97.89478078 87.24146999 -97 84 C-95.88625 83.7525 -94.7725 83.505 -93.625 83.25 C-90.02279573 82.41726134 -90.02279573 82.41726134 -88.83154297 80.24804688 C-87.90539882 77.74424907 -87.45336686 75.42371558 -87.0703125 72.78125 C-86.9170752 71.7720752 -86.76383789 70.76290039 -86.60595703 69.72314453 C-86.44724121 68.65950684 -86.28852539 67.59586914 -86.125 66.5 C-83.26757459 48.5592032 -78.19607686 31.83485151 -62.796875 20.578125 C-55.58499865 15.58692031 -48.51480509 12.22876843 -40 10 C-39.15695313 9.77747559 -38.31390625 9.55495117 -37.4453125 9.32568359 C-33.4747696 8.27933676 -29.50260367 7.24031419 -25.52441406 6.22338867 C-19.07865782 4.57283958 -12.74032445 2.76606199 -6.42578125 0.6640625 C-4 0 -4 0 0 0 Z " fill="#F8634A" transform="translate(124,314)"/>
<path d="M0 0 C1.30783447 0.20133545 1.30783447 0.20133545 2.64208984 0.40673828 C12.57947412 1.98518296 22.26065578 3.99630629 31.9375 6.75 C40.48374211 9.12790697 49.94590437 11.37672379 58.52734375 8.0078125 C60.54351197 6.79886247 62.22641025 5.53873083 64 4 C65.6657296 2.66549617 67.33222326 1.33194456 69 0 C69.11614929 4.0830942 69.18723457 8.16576377 69.25 12.25 C69.28351563 13.40886719 69.31703125 14.56773437 69.3515625 15.76171875 C69.36445313 16.87675781 69.37734375 17.99179688 69.390625 19.140625 C69.41157227 20.16704102 69.43251953 21.19345703 69.45410156 22.25097656 C68.87955293 25.72915805 67.73945507 26.85172305 65 29 C61.19373065 30.26875645 57.58404259 30.31963223 53.59375 30.5234375 C50.57705662 31.07770948 49.86738895 31.63027057 48 34 C47.41343726 36.15842176 47.41343726 36.15842176 47.26171875 38.578125 C47.16721436 39.4846582 47.07270996 40.39119141 46.9753418 41.32519531 C46.880354 42.29038086 46.78536621 43.25556641 46.6875 44.25 C44.50395028 62.81395561 37.14848588 77.63163978 24 91 C22.96746094 92.051875 22.96746094 92.051875 21.9140625 93.125 C8.01400432 106.35330815 -11.06302496 113.69821009 -30 115 C-31.12792969 115.0825 -32.25585938 115.165 -33.41796875 115.25 C-55.97687387 116.08070767 -76.93125561 106.74995153 -93.8125 92.25 C-103.44130657 83.07431374 -109.40489129 72.30886498 -114 60 C-114.3609375 59.06285156 -114.721875 58.12570313 -115.09375 57.16015625 C-116.26193074 53.08662946 -116.66767096 49.08422088 -117.0625 44.875 C-117.2175311 43.28881408 -117.37500026 41.70286416 -117.53515625 40.1171875 C-117.600979 39.42222168 -117.66680176 38.72725586 -117.73461914 38.01123047 C-118.01308649 35.90082195 -118.26885899 34.00447038 -119 32 C-122.12776508 30.95741164 -124.59340827 30.83071161 -127.875 30.6875 C-132.75138246 30.32191873 -135.63942065 29.82410753 -139 26 C-140.25248502 23.49502996 -140.11374406 21.79146726 -140.09765625 18.9921875 C-140.09443359 18.00605469 -140.09121094 17.01992187 -140.08789062 16.00390625 C-140.07951172 14.97136719 -140.07113281 13.93882812 -140.0625 12.875 C-140.05798828 11.83472656 -140.05347656 10.79445312 -140.04882812 9.72265625 C-140.03701952 7.14838038 -140.02055075 4.57421854 -140 2 C-136.41628085 2 -135.72412796 2.74478337 -133 4.9375 C-126.51057851 10.13641153 -118.99446781 9.7665928 -111 9 C-107.72812241 8.24010544 -104.64438443 7.2351921 -101.46875 6.14453125 C-69.9725964 -4.24778069 -32.61169465 -5.06688478 0 0 Z " fill="#FEE6CE" transform="translate(268,137)"/>
<path d="M0 0 C5.94 0 11.88 0 18 0 C18.390625 2.9296875 18.78125 5.859375 19.171875 8.7890625 C20.2957837 13.14685943 21.83486253 16.56218418 25.69628906 19.12646484 C27.68077897 20.15416521 29.68173378 21.02924058 31.75 21.875 C32.42804688 22.18179687 33.10609375 22.48859375 33.8046875 22.8046875 C39.23122806 25.11560971 44.43977991 26.24135108 50.20703125 24.23046875 C52.57573071 22.69167859 54.75609704 21.26196985 56.6875 19.1875 C57.120625 18.795625 57.55375 18.40375 58 18 C62.28182017 18.26701774 64.41146823 21.11192092 67.25 24.0625 C68.14203125 24.98160156 69.0340625 25.90070313 69.953125 26.84765625 C70.96632813 27.91306641 70.96632813 27.91306641 72 29 C70.73118481 31.73921785 69.33470603 33.84440643 67.375 36.125 C64.82908774 39.74568361 64.15178054 42.56266392 64.3828125 46.97265625 C65.19973256 50.97970086 66.54982304 54.60862416 68.125 58.375 C68.40762695 59.0652124 68.69025391 59.7554248 68.98144531 60.46655273 C71.10048461 65.15518545 73.26362383 67.62292009 78 70 C80.92293309 70.64511023 80.92293309 70.64511023 83.8125 70.6875 C88.92917847 70.92917847 88.92917847 70.92917847 90 72 C90.08631874 73.34267413 90.10706473 74.68974322 90.09765625 76.03515625 C90.09443359 76.84404297 90.09121094 77.65292969 90.08789062 78.48632812 C90.07951172 79.33646484 90.07113281 80.18660156 90.0625 81.0625 C90.05798828 81.91650391 90.05347656 82.77050781 90.04882812 83.65039062 C90.03700373 85.76695663 90.01906769 87.88348685 90 90 C89.20335937 90.02578125 88.40671875 90.0515625 87.5859375 90.078125 C85.99652344 90.16320312 85.99652344 90.16320312 84.375 90.25 C83.33085937 90.29640625 82.28671875 90.3428125 81.2109375 90.390625 C77.20809266 91.15028898 75.11495882 92.37282319 72 95 C70.45386447 97.42475129 69.26624574 99.53093446 68.125 102.125 C67.8261792 102.79080078 67.5273584 103.45660156 67.21948242 104.14257812 C64.65602471 110.19488206 63.31633307 115.7341708 65.8125 122.05859375 C67.43054766 125.09875362 69.37218273 127.76635532 72 130 C70.41332422 133.90285767 67.86649519 136.33520982 64.875 139.25 C63.96492187 140.14203125 63.05484375 141.0340625 62.1171875 141.953125 C61.06917969 142.96632813 61.06917969 142.96632813 60 144 C59.46890625 143.59007812 58.9378125 143.18015625 58.390625 142.7578125 C57.68421875 142.21898437 56.9778125 141.68015625 56.25 141.125 C55.55390625 140.59132813 54.8578125 140.05765625 54.140625 139.5078125 C49.46580825 136.21496712 45.76660858 135.29809154 40 136 C37.11939573 136.78574229 34.46690241 137.89567914 31.75 139.125 C30.70972656 139.55039062 30.70972656 139.55039062 29.6484375 139.984375 C24.88050471 142.0851883 22.41859352 144.21023636 20 149 C19.11205573 152.17827088 19.11205573 152.17827088 18.75 155.375 C18.5025 157.23125 18.255 159.0875 18 161 C12.06 161 6.12 161 0 161 C-0.09765625 158.36328125 -0.1953125 155.7265625 -0.29296875 153.08984375 C-1.39186303 148.28749361 -3.6574612 144.5928493 -7.78051758 141.78930664 C-9.75730796 140.75895069 -11.74432911 139.89327043 -13.8125 139.0625 C-14.48603516 138.76021484 -15.15957031 138.45792969 -15.85351562 138.14648438 C-20.77044924 136.07149134 -24.67023288 135.51849456 -30 136 C-32.45865885 136.91716853 -32.45865885 136.91716853 -34.375 138.375 C-35.02210938 138.81585938 -35.66921875 139.25671875 -36.3359375 139.7109375 C-38.12459881 141.04061712 -38.12459881 141.04061712 -40 143 C-44.25458666 142.86126348 -46.45596414 139.84182675 -49.25 136.9375 C-50.14203125 136.01839844 -51.0340625 135.09929687 -51.953125 134.15234375 C-52.96632813 133.08693359 -52.96632813 133.08693359 -54 132 C-52.38331641 128.59263997 -50.38560204 125.92428638 -48 123 C-45.65611973 118.31223946 -46.03454296 112.03429356 -47.59472656 107.13085938 C-50.3459384 100.236855 -53.19710492 94.57151991 -60 91 C-62.95522154 90.31942573 -62.95522154 90.31942573 -65.875 90.25 C-67.56625 90.1675 -69.2575 90.085 -71 90 C-71 83.73 -71 77.46 -71 71 C-69.30875 70.9175 -67.6175 70.835 -65.875 70.75 C-60.79108604 70.23575006 -57.72900964 69.72900964 -54 66 C-48.89888707 57.28960906 -45.3478388 49.23565493 -47 39 C-48.92820221 35.83292786 -51.20682239 33.42265405 -54 31 C-52.46751951 27.41597305 -50.3325399 24.97149866 -47.625 22.1875 C-46.85414063 21.37667969 -46.08328125 20.56585938 -45.2890625 19.73046875 C-43 18 -43 18 -40.90234375 18.08203125 C-37.8780406 19.54139725 -35.54560924 21.83352405 -33 24 C-25.91996793 26.36001069 -20.28518331 24.83198409 -13.75 21.875 C-13.05648437 21.59140625 -12.36296875 21.3078125 -11.6484375 21.015625 C-6.88050471 18.9148117 -4.41859352 16.78976364 -2 12 C-1.11205573 8.82172912 -1.11205573 8.82172912 -0.75 5.625 C-0.37875 2.840625 -0.37875 2.840625 0 0 Z " fill="#DEECF8" transform="translate(399,336)"/>
<path d="M0 0 C1.32013896 0.31854914 2.64070773 0.63532155 3.96166992 0.95043945 C6.67898908 1.60184276 9.3931315 2.26468915 12.10546875 2.93652344 C16.15539966 3.93616846 20.21683371 4.88163112 24.28125 5.8203125 C26.85456829 6.42016964 29.42726433 7.0226446 32 7.625 C33.17860596 7.89771729 34.35721191 8.17043457 35.5715332 8.45141602 C49.08116854 11.6848825 59.47112368 15.74610325 68.1875 26.9375 C68.826875 28.05125 69.46625 29.165 70.125 30.3125 C73.06472965 34.0539741 75.59111712 34.03329353 80.1875 34.9375 C83.08764024 40.73778047 82.28779082 48.61917836 82.1875 54.9375 C81.218125 55.22625 80.24875 55.515 79.25 55.8125 C76.08085797 56.57964682 76.08085797 56.57964682 75.1875 58.9375 C75.03338894 60.9682477 74.93767547 63.00356421 74.87109375 65.0390625 C74.82919922 66.25078125 74.78730469 67.4625 74.74414062 68.7109375 C74.70482422 69.98195313 74.66550781 71.25296875 74.625 72.5625 C74.56022461 74.480625 74.56022461 74.480625 74.49414062 76.4375 C74.38780114 79.60405348 74.28577167 82.77068753 74.1875 85.9375 C72.30399244 85.47941096 70.42134875 85.01776929 68.5390625 84.5546875 C66.96632568 84.16966064 66.96632568 84.16966064 65.36181641 83.77685547 C62.37660017 82.98750203 59.48164943 82.06575354 56.5625 81.0625 C46.7026982 77.97687857 36.49776805 76.30356763 26.33984375 74.50585938 C23.65554056 74.0218865 20.98522088 73.4962327 18.3125 72.953125 C-11.01894502 67.44201053 -44.90184417 69.18951525 -74.03515625 75.1640625 C-76.5756086 75.68423785 -79.12606576 76.15753221 -81.68359375 76.5859375 C-90.21307948 78.02301636 -98.2405913 80.15545228 -106.4309082 82.95629883 C-107.56919067 83.33951294 -107.56919067 83.33951294 -108.73046875 83.73046875 C-109.39844482 83.9627417 -110.0664209 84.19501465 -110.75463867 84.43432617 C-113.16021601 85.02252108 -115.34529808 85.02041086 -117.8125 84.9375 C-117.94039222 78.60634193 -118.02730336 72.27552283 -118.0871582 65.94335938 C-118.11213783 63.79414421 -118.14613366 61.64501255 -118.18969727 59.49609375 C-118.49940623 43.81388911 -118.20228345 32.32727729 -107.36328125 20.0703125 C-100.22370314 14.10061932 -93.03878359 11.0041493 -84 9.125 C-81.80411941 8.63927993 -79.60884472 8.15081557 -77.4140625 7.66015625 C-76.21426758 7.39477051 -75.01447266 7.12938477 -73.77832031 6.85595703 C-69.35594556 5.85196524 -64.9733906 4.70398845 -60.5859375 3.55859375 C-58.15147938 2.93253248 -55.71652667 2.30843262 -53.28140259 1.68496704 C-51.70501888 1.27720198 -50.1303563 0.86271037 -48.55770874 0.44076538 C-31.73131923 -4.05857237 -16.98451885 -4.28924764 0 0 Z " fill="#F8634A" transform="translate(254.8125,18.0625)"/>
<path d="M0 0 C0.33 0 0.66 0 1 0 C1.11614929 4.0830942 1.18723457 8.16576377 1.25 12.25 C1.28351563 13.40886719 1.31703125 14.56773437 1.3515625 15.76171875 C1.37089844 17.43427734 1.37089844 17.43427734 1.390625 19.140625 C1.4220459 20.68024902 1.4220459 20.68024902 1.45410156 22.25097656 C0.87955293 25.72915805 -0.26054493 26.85172305 -3 29 C-6.80626935 30.26875645 -10.41595741 30.31963223 -14.40625 30.5234375 C-17.42294338 31.07770948 -18.13261105 31.63027057 -20 34 C-20.58656274 36.15842176 -20.58656274 36.15842176 -20.73828125 38.578125 C-20.83278564 39.4846582 -20.92729004 40.39119141 -21.0246582 41.32519531 C-21.16713989 42.77297363 -21.16713989 42.77297363 -21.3125 44.25 C-23.49604972 62.81395561 -30.85151412 77.63163978 -44 91 C-44.68835938 91.70125 -45.37671875 92.4025 -46.0859375 93.125 C-63.37030155 109.57406021 -86.02711119 115.16057451 -109.26953125 115.265625 C-112 115 -112 115 -114 113 C-113.14019531 112.55011719 -112.28039062 112.10023438 -111.39453125 111.63671875 C-91.93179049 101.16446559 -75.86505865 85.64471403 -68.90844727 64.07861328 C-64.8352465 50.27504928 -64.4701045 36.8659584 -64.3125 22.5625 C-64.27924978 20.46287038 -64.24475332 18.3632601 -64.20898438 16.26367188 C-64.1249763 11.17588984 -64.05775818 6.08814495 -64 1 C-55.2647607 2.07577234 -47.00334247 3.66256429 -38.5625 6.125 C-24.05924368 10.20051355 -24.05924368 10.20051355 -9.453125 8.00390625 C-5.80137031 5.86483097 -2.87296655 3.10280387 0 0 Z " fill="#EDD4BC" transform="translate(336,137)"/>
<path d="M0 0 C0.57443848 0.176521 1.14887695 0.35304199 1.74072266 0.53491211 C4.36762803 1.33970954 6.99628101 2.13864729 9.625 2.9375 C10.98044922 3.35418945 10.98044922 3.35418945 12.36328125 3.77929688 C31.91551507 9.70205384 51.69354218 7.96945742 71 2 C73.33076754 1.32402334 75.66538515 0.66260952 78 0 C78.0093457 0.6391333 78.01869141 1.2782666 78.02832031 1.93676758 C78.17278993 18.42101325 78.17278993 18.42101325 83 34 C83.78100586 35.86914062 83.78100586 35.86914062 84 38 C82.58813477 39.99536133 82.58813477 39.99536133 80.44140625 42.08203125 C79.66216797 42.84966797 78.88292969 43.61730469 78.08007812 44.40820312 C77.24927734 45.20162109 76.41847656 45.99503906 75.5625 46.8125 C74.76650391 47.59431641 73.97050781 48.37613281 73.15039062 49.18164062 C68.82978592 53.39660707 64.39647949 57.43660212 59.82885742 61.38061523 C57.05135295 63.83999144 54.46207153 66.46819609 51.875 69.125 C49.94127406 71.11001841 47.9909542 73.07229253 46 75 C45.48469727 75.49983398 44.96939453 75.99966797 44.43847656 76.51464844 C42.8828125 77.9296875 42.8828125 77.9296875 40 80 C35.31466204 79.52539028 32.82894945 76.1147301 29.75 72.875 C28.58264842 71.67521298 27.4133884 70.47727971 26.2421875 69.28125 C25.68112305 68.70761719 25.12005859 68.13398438 24.54199219 67.54296875 C22.72684853 65.72667554 20.83464242 64.03378445 18.875 62.375 C15.57939545 59.57999361 12.53282181 56.57407067 9.5 53.5 C5.68076716 49.63833124 1.79922534 45.94849605 -2.34375 42.4375 C-3.97276716 41.02363605 -5.49371717 39.54302144 -7 38 C-6.03918581 35.55375198 -5.06260029 33.1348922 -3.95605469 30.75048828 C-0.96297798 24.07895139 -0.3515851 18.13371743 -0.25 10.875 C-0.22035156 9.823125 -0.19070312 8.77125 -0.16015625 7.6875 C-0.09026789 5.12492691 -0.03717599 2.56322038 0 0 Z " fill="#FDE5CD" transform="translate(194,259)"/>
<path d="M0 0 C6.48823827 3.36071354 12.27199668 6.78476562 16.3137207 13.00195312 C16.79067383 13.71996094 17.26762695 14.43796875 17.7590332 15.17773438 C21.27681123 21.35787446 22.74729973 26.36173952 22.6887207 33.37695312 C22.68372559 34.16497314 22.67873047 34.95299316 22.67358398 35.76489258 C22.39947087 45.03086121 19.40260499 53.39898978 12.8996582 60.16601562 C5.13703744 67.07793822 -3.45632413 70.64203547 -13.9362793 71.00195312 C-25.99063712 70.02982749 -33.9147313 66.3181958 -42.3112793 57.47460938 C-48.10157249 50.58355731 -50.20775254 42.72799753 -50.1862793 33.81445312 C-50.18466797 33.11336426 -50.18305664 32.41227539 -50.18139648 31.68994141 C-50.04381539 25.86162839 -48.86851324 21.5979533 -45.8112793 16.68945312 C-45.2131543 15.65820312 -44.6150293 14.62695312 -43.9987793 13.56445312 C-33.82970542 0.19938459 -16.16729151 -7.61995871 0 0 Z " fill="#030202" transform="translate(421.811279296875,382.310546875)"/>
<path d="M0 0 C5.94 0 11.88 0 18 0 C18.390625 2.9296875 18.78125 5.859375 19.171875 8.7890625 C20.2957837 13.14685943 21.83486253 16.56218418 25.69628906 19.12646484 C27.68077897 20.15416521 29.68173378 21.02924058 31.75 21.875 C32.42804688 22.18179687 33.10609375 22.48859375 33.8046875 22.8046875 C39.23122806 25.11560971 44.43977991 26.24135108 50.20703125 24.23046875 C52.57573071 22.69167859 54.75609704 21.26196985 56.6875 19.1875 C57.120625 18.795625 57.55375 18.40375 58 18 C62.28182017 18.26701774 64.41146823 21.11192092 67.25 24.0625 C68.14203125 24.98160156 69.0340625 25.90070313 69.953125 26.84765625 C70.62859375 27.55792969 71.3040625 28.26820313 72 29 C70.73118481 31.73921785 69.33470603 33.84440643 67.375 36.125 C64.82908774 39.74568361 64.15178054 42.56266392 64.3828125 46.97265625 C65.19973256 50.97970086 66.54982304 54.60862416 68.125 58.375 C68.40762695 59.0652124 68.69025391 59.7554248 68.98144531 60.46655273 C71.10048461 65.15518545 73.26362383 67.62292009 78 70 C80.92293309 70.64511023 80.92293309 70.64511023 83.8125 70.6875 C88.92917847 70.92917847 88.92917847 70.92917847 90 72 C90.08631874 73.34267413 90.10706473 74.68974322 90.09765625 76.03515625 C90.09282227 77.24848633 90.09282227 77.24848633 90.08789062 78.48632812 C90.07532227 79.7615332 90.07532227 79.7615332 90.0625 81.0625 C90.05798828 81.91650391 90.05347656 82.77050781 90.04882812 83.65039062 C90.03700373 85.76695663 90.01906769 87.88348685 90 90 C88.80503906 90.03867187 88.80503906 90.03867187 87.5859375 90.078125 C85.99652344 90.16320312 85.99652344 90.16320312 84.375 90.25 C83.33085937 90.29640625 82.28671875 90.3428125 81.2109375 90.390625 C77.20809266 91.15028898 75.11495882 92.37282319 72 95 C70.45386447 97.42475129 69.26624574 99.53093446 68.125 102.125 C67.8261792 102.79080078 67.5273584 103.45660156 67.21948242 104.14257812 C64.65602471 110.19488206 63.31633307 115.7341708 65.8125 122.05859375 C67.43054766 125.09875362 69.37218273 127.76635532 72 130 C70.41332422 133.90285767 67.86649519 136.33520982 64.875 139.25 C63.96492188 140.14203125 63.05484375 141.0340625 62.1171875 141.953125 C61.41851562 142.62859375 60.71984375 143.3040625 60 144 C59.46890625 143.59007812 58.9378125 143.18015625 58.390625 142.7578125 C57.68421875 142.21898437 56.9778125 141.68015625 56.25 141.125 C55.55390625 140.59132813 54.8578125 140.05765625 54.140625 139.5078125 C49.46580825 136.21496712 45.76660858 135.29809154 40 136 C37.11939573 136.78574229 34.46690241 137.89567914 31.75 139.125 C30.70972656 139.55039062 30.70972656 139.55039062 29.6484375 139.984375 C24.88050471 142.0851883 22.41859352 144.21023636 20 149 C19.11205573 152.17827088 19.11205573 152.17827088 18.75 155.375 C18.5025 157.23125 18.255 159.0875 18 161 C12.06 161 6.12 161 0 161 C1 157 1 157 3.15234375 155.39453125 C4.07144531 154.87246094 4.99054688 154.35039062 5.9375 153.8125 C27.11994769 140.90573045 39.258396 120.03979733 45.16796875 96.484375 C45.44253906 95.33453125 45.71710938 94.1846875 46 93 C45.01 93.33 44.02 93.66 43 94 C43.15629883 93.27941406 43.31259766 92.55882812 43.47363281 91.81640625 C45.82746791 79.22186003 46.31483332 65.15846444 42 53 C41.64679688 51.99066406 41.29359375 50.98132813 40.9296875 49.94140625 C33.48710173 30.59561211 19.79847518 15.45347473 2.2734375 4.7265625 C1.52320313 4.15679687 0.77296875 3.58703125 0 3 C0 2.01 0 1.02 0 0 Z " fill="#B8CCD6" transform="translate(399,336)"/>
<path d="M0 0 C1.17827362 -0.00953201 2.35654724 -0.01906403 3.57052612 -0.02888489 C5.46751755 -0.02751778 5.46751755 -0.02751778 7.40283203 -0.02612305 C8.71091827 -0.03040817 10.01900452 -0.0346933 11.36672974 -0.03910828 C14.1322231 -0.04655527 16.89758877 -0.04629068 19.66308594 -0.04101562 C23.19249492 -0.03522804 26.7213779 -0.05214147 30.2507 -0.0753603 C33.63476524 -0.09371003 37.01871741 -0.08991083 40.40283203 -0.08862305 C41.66344452 -0.09783279 42.92405701 -0.10704254 44.22286987 -0.11653137 C50.55507826 -0.08323513 55.52540298 0.0006239 61.03564453 3.2746582 C65.73673234 9.06530121 65.61702316 14.52503159 65.47314453 21.7746582 C65.48023438 22.78141602 65.48732422 23.78817383 65.49462891 24.82543945 C65.44431638 30.73135629 64.89450008 35.07546502 62.03564453 40.2746582 C57.92236191 44.25525429 53.69647693 44.39946269 48.16894531 44.43579102 C46.98736847 44.44539856 45.80579163 44.4550061 44.58840942 44.46490479 C43.31545013 44.46915466 42.04249084 44.47340454 40.73095703 44.4777832 C39.41908417 44.48348328 38.1072113 44.48918335 36.75558472 44.49505615 C33.9799562 44.50554548 31.20435647 44.51140177 28.42871094 44.51489258 C24.88239569 44.52037563 21.33646468 44.54440783 17.79026985 44.57286453 C14.39550652 44.59603204 11.0007953 44.59794291 7.60595703 44.6027832 C5.70259079 44.62130341 5.70259079 44.62130341 3.76077271 44.64019775 C2.57289154 44.63719666 1.38501038 44.63419556 0.16113281 44.63110352 C-0.87937225 44.63474915 -1.91987732 44.63839478 -2.99191284 44.64215088 C-7.70862129 44.05900899 -10.96959957 42.27107479 -14.30419922 38.9309082 C-17.32759529 33.84746073 -16.57848897 27.47864136 -16.52685547 21.7746582 C-16.55070312 20.56422852 -16.57455078 19.35379883 -16.59912109 18.10668945 C-16.58281757 8.22675339 -16.58281757 8.22675339 -13.74169922 4.5559082 C-9.300557 0.90805018 -5.6926385 0.0253737 0 0 Z " fill="#050201" transform="translate(133.96435546875,398.725341796875)"/>
<path d="M0 0 C15.54148778 -1.34309154 29.95532085 2.2967565 44.91796875 5.99902344 C48.96789966 6.99866846 53.02933371 7.94413112 57.09375 8.8828125 C59.66706829 9.48266964 62.23976433 10.0851446 64.8125 10.6875 C65.99110596 10.96021729 67.16971191 11.23293457 68.3840332 11.51391602 C81.89366854 14.7473825 92.28362368 18.80860325 101 30 C101.639375 31.11375 102.27875 32.2275 102.9375 33.375 C105.87722965 37.1164741 108.40361712 37.09579353 113 38 C115.90014024 43.80028047 115.10029082 51.68167836 115 58 C114.030625 58.28875 113.06125 58.5775 112.0625 58.875 C108.89335797 59.64214682 108.89335797 59.64214682 108 62 C107.84588894 64.0307477 107.75017547 66.06606421 107.68359375 68.1015625 C107.64169922 69.31328125 107.59980469 70.525 107.55664062 71.7734375 C107.51732422 73.04445313 107.47800781 74.31546875 107.4375 75.625 C107.37272461 77.543125 107.37272461 77.543125 107.30664062 79.5 C107.20030114 82.66655348 107.09827167 85.83318753 107 89 C94.84945272 86.04247061 94.84945272 86.04247061 89.0625 84.0625 C79.914501 81.16600643 70.43487083 79.66458365 61 78 C61.99 77.67 62.98 77.34 64 77 C64.46160243 45.60137475 64.46160243 45.60137475 49.96875 18.79296875 C37.32243719 6.44448577 16.82818769 3.6872968 0 1 C0 0.67 0 0.34 0 0 Z " fill="#D83E2D" transform="translate(222,15)"/>
<path d="M0 0 C-0.6079498 4.13405862 -1.90962447 7.38204235 -4 11 C-8.50457967 14.00305311 -12.60348814 13.457477 -17.734375 12.47802734 C-20.83555885 11.75862243 -23.91745369 10.98290537 -27 10.1875 C-29.2388991 9.63135278 -31.47848464 9.07796162 -33.71875 8.52734375 C-34.79898438 8.26163574 -35.87921875 7.99592773 -36.9921875 7.72216797 C-55.83720663 3.19752782 -74.67215689 1.55975888 -94 1.5625 C-94.95277832 1.56110016 -95.90555664 1.55970032 -96.88720703 1.55825806 C-120.32084898 1.58633429 -150.67264038 2.33632019 -172 13 C-180.68193604 13.92264477 -180.68193604 13.92264477 -184.5 11.25 C-187.16392344 7.25411483 -188.27195267 4.89514807 -188 0 C-173.26887341 -6.85363053 -156.05691934 -10.79819286 -140 -13 C-139.06494629 -13.13390137 -138.12989258 -13.26780273 -137.16650391 -13.40576172 C-93.88859769 -19.37535964 -40.07783931 -20.03891966 0 0 Z " fill="#D73E2D" transform="translate(327,119)"/>
<path d="M0 0 C0.01401855 0.95869995 0.01401855 0.95869995 0.02832031 1.93676758 C0.17278993 18.42101325 0.17278993 18.42101325 5 34 C5.78100586 35.86694336 5.78100586 35.86694336 6 38 C4.58813477 40.01123047 4.58813477 40.01123047 2.44140625 42.1171875 C1.66216797 42.88933594 0.88292969 43.66148437 0.08007812 44.45703125 C-0.75072266 45.25496094 -1.58152344 46.05289063 -2.4375 46.875 C-3.23349609 47.66519531 -4.02949219 48.45539063 -4.84960938 49.26953125 C-15.59320162 59.79422389 -15.59320162 59.79422389 -20 62 C-23.1020319 61.67121157 -25.31728184 60.54606448 -28 59 C-28.62132812 58.70222656 -29.24265625 58.40445313 -29.8828125 58.09765625 C-36.11341809 54.95538114 -39.75454667 50.32362282 -42.39126587 43.94943237 C-43.42729982 40.63159947 -43.36813787 37.31397627 -43.29296875 33.87890625 C-43.28660149 32.76176491 -43.28660149 32.76176491 -43.28010559 31.62205505 C-43.26345724 29.26848527 -43.22583375 26.91580621 -43.1875 24.5625 C-43.17243515 22.95639267 -43.15874991 21.35027177 -43.14648438 19.74414062 C-43.11359952 15.82908953 -43.06191626 11.91469521 -43 8 C-41.9689917 7.95609131 -40.9379834 7.91218262 -39.87573242 7.86694336 C-31.77376625 7.47328671 -24.16274139 6.73924438 -16.3125 4.5625 C-15.47267578 4.34529297 -14.63285156 4.12808594 -13.76757812 3.90429688 C-9.37368087 2.7458109 -4.45119109 0 0 0 Z " fill="#ECD3BB" transform="translate(272,259)"/>
<path d="M0 0 C0.79293457 0.19223145 1.58586914 0.38446289 2.40283203 0.58251953 C3.28938477 0.79231445 4.1759375 1.00210937 5.08935547 1.21826172 C9.75578388 2.45392033 14.40368481 3.7306697 19.03564453 5.09033203 C19.99212891 5.36748047 20.94861328 5.64462891 21.93408203 5.93017578 C24.26069741 6.60489424 26.58615875 7.28332033 28.91064453 7.96533203 C27.13565263 11.76657502 24.72030232 14.51490137 21.84814453 17.52783203 C18.2982141 21.31796595 14.89299598 25.14564763 11.66064453 29.21533203 C5.51941565 36.85278758 -1.29387998 43.91068026 -8.08935547 50.96533203 C-8.58967285 51.50996094 -9.08999023 52.05458984 -9.60546875 52.61572266 C-13.0494291 55.74803803 -17.73442242 55.46987612 -22.13623047 55.45361328 C-27.39388615 54.80419929 -32.19687966 53.31651689 -37.21435547 51.65283203 C-38.15134277 51.34474609 -39.08833008 51.03666016 -40.05371094 50.71923828 C-46.82650801 48.35960322 -46.82650801 48.35960322 -49.08935547 44.96533203 C-46.42701347 42.27351928 -43.7586888 39.58771056 -41.08935547 36.90283203 C-40.34556641 36.15066406 -39.60177734 35.39849609 -38.83544922 34.62353516 C-34.65529467 30.42520603 -30.38875963 26.41678649 -25.89794922 22.5534668 C-23.33442251 20.30242181 -20.9730977 17.90651384 -18.58935547 15.46533203 C-14.77012263 11.60366327 -10.88858081 7.91382809 -6.74560547 4.40283203 C-5.05574016 3.0198475 -5.05574016 3.0198475 -3.76660156 1.33691406 C-2.08935547 -0.03466797 -2.08935547 -0.03466797 0 0 Z " fill="#B7CBD5" transform="translate(297.08935546875,301.03466796875)"/>
<path d="M0 0 C3.05446297 2.45734991 5.69351256 5.27174469 8.375 8.125 C9.81776888 9.63004667 11.26306735 11.13267267 12.7109375 12.6328125 C13.42217773 13.37047852 14.13341797 14.10814453 14.86621094 14.86816406 C17.5135366 17.51306655 20.30641935 19.94495701 23.14697266 22.37841797 C25.90076936 24.7882622 28.44770196 27.3803762 31 30 C35.04263528 34.11652324 39.15697838 37.99124492 43.671875 41.59765625 C45 43 45 43 45 46 C41.42814769 47.36554801 37.84112593 48.68606517 34.25 50 C33.25355469 50.3815625 32.25710937 50.763125 31.23046875 51.15625 C24.1139674 53.72737307 17.57161898 55.10688748 10 54 C5.11832812 51.66332891 1.75720292 47.92272389 -1.8125 43.9375 C-2.33457031 43.36386719 -2.85664063 42.79023438 -3.39453125 42.19921875 C-7.30279545 37.86947507 -10.9907129 33.38453947 -14.63671875 28.83203125 C-17.88452536 24.94003159 -21.33758061 21.25333639 -24.83984375 17.58984375 C-27.98573704 14.25889791 -30.55826105 10.88010299 -33 7 C-32.2886792 6.79318604 -31.5773584 6.58637207 -30.84448242 6.37329102 C-27.62531272 5.43696305 -24.40640369 4.49974204 -21.1875 3.5625 C-20.06794922 3.23701172 -18.94839844 2.91152344 -17.79492188 2.57617188 C-16.72177734 2.26357422 -15.64863281 1.95097656 -14.54296875 1.62890625 C-13.55321045 1.34088135 -12.56345215 1.05285645 -11.54370117 0.75610352 C-4.32819688 -1.38867207 -4.32819688 -1.38867207 0 0 Z " fill="#B7CBD5" transform="translate(172,302)"/>
<path d="M0 0 C4.00130889 2.9927145 7.6468507 6.9265139 9.890625 11.4140625 C10.04039539 13.66061837 10.11212674 15.91270018 10.140625 18.1640625 C10.16640625 19.37578125 10.1921875 20.5875 10.21875 21.8359375 C9.63198862 28.23443067 6.72182691 32.33438089 1.890625 36.4140625 C-3.83004858 40.33425623 -9.24543341 41.4742573 -16.109375 40.4140625 C-22.2787937 38.56542463 -26.61470952 34.7673558 -30.109375 29.4140625 C-32.7829131 23.86486314 -32.87122965 18.46177467 -32.109375 12.4140625 C-29.62797699 5.91769862 -24.77135232 1.55021594 -18.859375 -1.8984375 C-12.25217216 -3.55023821 -5.99646985 -3.38824923 0 0 Z " fill="#D83E2D" transform="translate(419.109375,397.5859375)"/>
<path d="M0 0 C6.0676766 1.28735572 11.94784599 2.88690447 17.85546875 4.77734375 C22.89475495 6.37685807 27.98496203 7.80142099 33.0703125 9.24609375 C34.02083496 9.51647461 34.97135742 9.78685547 35.95068359 10.06542969 C38.21941711 10.71008353 40.48844386 11.35367994 42.7578125 11.99609375 C42.25177258 14.16483627 41.75797437 15.99577002 40.7578125 17.99609375 C40.530311 19.86666166 40.34818439 21.74295333 40.1953125 23.62109375 C40.06962891 25.12542969 40.06962891 25.12542969 39.94140625 26.66015625 C39.88082031 27.43101562 39.82023437 28.201875 39.7578125 28.99609375 C38.3481778 29.69789906 36.92973609 30.38203333 35.5078125 31.05859375 C34.71890625 31.44144531 33.93 31.82429688 33.1171875 32.21875 C30.42501793 33.10573964 29.35409409 33.05918025 26.7578125 31.99609375 C25.125 30.83984375 25.125 30.83984375 23.6328125 29.49609375 C19.2390066 25.67539297 16.37282929 25.56897172 10.671875 25.546875 C7.30597106 26.06574759 6.09940178 27.03436123 3.5703125 29.24609375 C0.25947261 31.81919215 -0.87893039 32.03859483 -5.1484375 31.5390625 C-7.96476251 30.87472842 -10.71553646 30.05530733 -13.47265625 29.1796875 C-16.77510547 28.14275267 -19.80066413 27.32963346 -23.2421875 26.99609375 C-25.60509435 28.30744787 -25.60509435 28.30744787 -27.2421875 29.99609375 C-25.6442813 26.13372619 -23.02083214 23.41379168 -20.1796875 20.43359375 C-15.59659274 15.54167125 -11.30251721 10.51279325 -7.1171875 5.2734375 C-6.4984375 4.52191406 -5.8796875 3.77039063 -5.2421875 2.99609375 C-4.76523437 2.38765625 -4.28828125 1.77921875 -3.796875 1.15234375 C-2.2421875 -0.00390625 -2.2421875 -0.00390625 0 0 Z " fill="#D83E2D" transform="translate(344.2421875,314.00390625)"/>
<path d="M0 0 C16.83 0 33.66 0 51 0 C51 4.62 51 9.24 51 14 C34.17 14 17.34 14 0 14 C0 9.38 0 4.76 0 0 Z " fill="#F0A621" transform="translate(133,414)"/>
</svg>
